<?xml version="1.0" encoding="UTF-8"?>
<svg id="Layer_1" data-name="Layer 1" xmlns="http://www.w3.org/2000/svg" version="1.1" viewBox="0 0 1920 441.6">
  <defs>
    <style>
      .cls-1 {
        fill: #006feb;
        stroke-width: 0px;
      }
    </style>
  </defs>
  <g>
    <path class="cls-1" d="M292.3,166.1c-3.7-3.7-7.5-7.5-11.8-10.5-2.5-1.7-6.1-2.2-9.2-2.2-27.8-.1-55.6-.1-83.4-.1h0s-4.1,0-4.1,0c-15.8,0-28.6,12.8-28.6,28.6s3,14.9,8.4,20.2h0s164.7,0,164.7,0c-12-12-24-24-36-36ZM267.8,182.5c-4.7,0-8.5-3.8-8.5-8.5s3.8-8.5,8.5-8.5,8.5,3.8,8.5,8.5-3.8,8.5-8.5,8.5Z"/>
    <path class="cls-1" d="M463.6,157.3c-1-2.8-3.1-3.8-5.7-3.8-15.2,0-30.5,0-45.7,0-.2,0-.5.2-1.1.6,12.9,7.6,22.9,17.7,30.5,31.4,2.9-3.2,5.3-5.9,7.8-8.4,4.1-4.2,8.3-8.3,12.5-12.4,2.1-2,2.9-4.4,1.9-7.2Z"/>
    <path class="cls-1" d="M389.2,155.5c-5.5-1.1-11.2-2-16.8-2-20.9-.2-41.9,0-62.8-.1-2.9,0-5.7.2-7.3,3.3-1.4,2.9-1.1,5,1.6,7.6,9.3,9.3,18.6,18.6,27.9,27.9,2,2,4.1,3.9,6.2,5.9,3.5,3.2,7.7,4.4,12.3,4.4,7.9,0,15.7,0,23.6,0,10.3.1,18.3,8.2,18.2,18.5,0,10.2-8.1,18.3-18.4,18.4-5.3,0-9.7-1.8-13.5-5.5-8.4-8.4-16.7-16.7-25.1-25.1h-48.7c16.5,16.5,33.4,33.4,50.5,50.4,2.3,2.3.7,6.1-2.6,6.1h0c-.9,0-1.9-.4-2.5-1.1-18.8-18.8-37.4-37.4-55.5-55.5h-44.4c16.5,16.5,33.4,33.4,50.5,50.4,2.3,2.3.7,6.1-2.6,6.1h0c-.9,0-1.9-.4-2.5-1.1-18.8-18.8-37.4-37.4-55.5-55.5h-51.3l60.9,60.8c12,11.9,28.2,18.7,45.1,18.7h.3c32.1,0,64.3.2,96.4,0,28.3-.2,49-13.4,61.5-38.6,12.8-25.7,6.9-56.4-14.1-77.1-8.7-8.6-19.1-14.6-31.2-17.1Z"/>
  </g>
  <g>
    <path class="cls-1" d="M524.2,151.9h34.9l18.3,87.3,19.8-87.3h26.3l19.8,87.7,18.3-87.7h34.7l-35.6,134.4h-30.1l-20.5-87-20.2,87h-31.1l-34.7-134.4Z"/>
    <path class="cls-1" d="M703.4,151.9h30.1v42.9c5.4-9.1,15.6-12.7,26.3-12.7,15.4,0,24.5,5.4,30,14.3,5.4,8.7,6.9,20.7,6.9,33.6v56.3h-30.1v-54.8c0-5.6-.7-10.9-3.1-14.7-2.5-3.8-6.5-6.4-13.1-6.4s-12.7,3.8-14.7,8.2c-2.2,4.4-2.2,9.3-2.2,11.8v55.9h-30.1v-134.4Z"/>
    <path class="cls-1" d="M917.7,286.3h-30.1v-10.9c-5.4,9.8-18,14.3-29.8,14.3-32,0-50.7-25.1-50.7-53.9s23.8-53.7,50.7-53.7,25.8,8,29.8,14.2v-10.7h30.1v100.8ZM837.3,236.4c0,9.3,6.9,25.2,25.1,25.2s17.3-5.1,21.1-11.3c2.5-4,3.8-8.4,4.2-12.9.4-4.5-.5-9.1-2.5-13.3-3.3-6.9-10.2-14-22.9-14s-24.9,14.5-24.9,26v.2Z"/>
    <path class="cls-1" d="M932.5,151.9h30.1v134.4h-30.1v-134.4Z"/>
    <path class="cls-1" d="M1003,246.3c1.3,10.7,11.4,17.8,23.2,17.8s14.7-4.2,18.3-9.4h30.9c-4.9,11.3-12,20-20.5,25.8-8.4,6-18.3,9.1-28.7,9.1-28.9,0-53.4-23.4-53.4-53.4s22.2-54.1,52.8-54.1,28.7,6,38.1,16c12.7,13.6,16.5,29.8,14.2,48.3h-75ZM1048.4,223.5c-.7-4.7-6.9-16-22.5-16s-21.8,11.3-22.5,16h45Z"/>
    <path class="cls-1" d="M1133.1,182.1h-26.5v-30.1h87.2v30.1h-26.3v104.2h-34.3v-104.2Z"/>
    <path class="cls-1" d="M1198.9,185.5h28.3v11.3c2.9-5.4,8.2-14.7,25.6-14.7v30.3h-1.1c-15.4,0-22.7,5.6-22.7,19.8v54.1h-30.1v-100.8Z"/>
    <path class="cls-1" d="M1364.1,286.3h-30.1v-10.9c-5.4,9.8-18,14.3-29.8,14.3-32,0-50.7-25.1-50.7-53.9s23.8-53.7,50.7-53.7,25.8,8,29.8,14.2v-10.7h30.1v100.8ZM1283.7,236.4c0,9.3,6.9,25.2,25.1,25.2s17.3-5.1,21.1-11.3c2.5-4,3.8-8.4,4.2-12.9.4-4.5-.5-9.1-2.5-13.3-3.3-6.9-10.2-14-22.9-14s-24.9,14.5-24.9,26v.2Z"/>
    <path class="cls-1" d="M1480.3,248c-5.4,22.9-25.6,41.6-52.8,41.6s-53.9-24-53.9-53.9,23.1-53.6,53.2-53.6,48.3,17.6,53.4,42.3h-30.5c-3.3-6.9-9.3-14.2-21.8-14.2-7.1-.4-13.1,2.4-17.4,7.1-4.2,4.7-6.5,11.3-6.5,18.5,0,14.7,9.6,25.6,24,25.6s18.5-7.3,21.8-13.4h30.7Z"/>
    <path class="cls-1" d="M1489.2,151.9h30.1v70.1l28.3-36.5h35.8l-38,44.3,36.9,56.5h-34.1l-28.9-48.5v48.5h-30.1v-134.4Z"/>
    <path class="cls-1" d="M1607.3,246.3c1.3,10.7,11.4,17.8,23.2,17.8s14.7-4.2,18.3-9.4h30.9c-4.9,11.3-12,20-20.5,25.8-8.4,6-18.3,9.1-28.7,9.1-28.9,0-53.4-23.4-53.4-53.4s22.2-54.1,52.8-54.1,28.7,6,38.1,16c12.7,13.6,16.5,29.8,14.2,48.3h-75ZM1652.7,223.5c-.7-4.7-6.9-16-22.5-16s-21.8,11.3-22.5,16h45Z"/>
    <path class="cls-1" d="M1692.7,185.5h28.3v11.3c2.9-5.4,8.2-14.7,25.6-14.7v30.3h-1.1c-15.4,0-22.7,5.6-22.7,19.8v54.1h-30.1v-100.8Z"/>
  </g>
</svg>